<svg width="32" height="32" viewBox="0 0 32 32" fill="none" xmlns="http://www.w3.org/2000/svg">
<g clip-path="url(#clip0_2_124)">
<path d="M11 5C9.031 5 7.46 6.441 7.125 8.313C5.235 8.789 3.594 10.02 2.875 11.969H2.844L0.719 17.938C0.24866 18.8904 0.00270462 19.9378 0 21C0 24.855 3.145 28 7 28C10.473 28 13.367 25.45 13.906 22.125C14.4615 22.6812 15.214 22.9956 16 23C16.813 23 17.55 22.66 18.094 22.125C18.633 25.449 21.527 28 25 28C28.855 28 32 24.855 32 21C32 20.027 31.8 19.094 31.437 18.25L29.157 11.875L29.125 11.844V11.813C28.395 10.039 26.777 8.801 24.875 8.313C24.539 6.44 22.969 5 21 5C19.145 5 17.637 6.285 17.187 8H14.812C14.364 6.285 12.855 5 11 5ZM11 7C12.191 7 13 7.809 13 9V10H19V9C19 7.809 19.809 7 21 7C22.191 7 23 7.809 23 9V9.906L23.906 10C25.391 10.156 26.672 11.191 27.25 12.531C27.258 12.551 27.273 12.574 27.281 12.594L28.031 14.719C27.0882 14.2527 26.0518 14.0069 25 14C22.074 14 19.574 15.816 18.531 18.375C18.2575 17.9527 17.8826 17.6056 17.4405 17.3655C16.9983 17.1253 16.5031 16.9996 16 17C14.95 17 14.004 17.543 13.469 18.375C12.426 15.816 9.926 14 7 14C5.93 14 4.91 14.254 4 14.688L4.75 12.656V12.625C5.332 11.078 6.559 10.16 8.094 10L9 9.906V9C9 7.809 9.809 7 11 7ZM7 16C9.773 16 12 18.227 12 21C12 23.773 9.773 26 7 26C4.227 26 2 23.773 2 21C2 20.293 2.176 19.64 2.438 19.031C2.453 18.992 2.453 18.945 2.468 18.906C2.8652 18.038 3.50362 17.3026 4.30716 16.7873C5.1107 16.2721 6.04546 15.9988 7 16V16ZM25 16C27.773 16 30 18.227 30 21C30 23.773 27.773 26 25 26C22.227 26 20 23.773 20 21C20 18.227 22.227 16 25 16ZM16 19C16.563 19 17 19.438 17 20C17 20.563 16.562 21 16 21C15.437 21 15 20.562 15 20C15 19.437 15.438 19 16 19Z" fill="#32A86F"/>
</g>
<defs>
<clipPath id="clip0_2_124">
<rect width="32" height="32" fill="white"/>
</clipPath>
</defs>
</svg>
